<mxfile host="app.diagrams.net" modified="2023-09-07T16:34:55.740Z" agent="Mozilla/5.0 (Windows NT 10.0; Win64; x64) AppleWebKit/537.36 (KHTML, like Gecko) Chrome/116.0.0.0 Safari/537.36" etag="OLmrW4YeKt6353vVfbAD" version="21.3.8" type="device">
  <diagram name="Página-1" id="ZAxyzJCrxRE2ZMAHhjSU">
    <mxGraphModel dx="880" dy="1615" grid="1" gridSize="10" guides="1" tooltips="1" connect="1" arrows="1" fold="1" page="1" pageScale="1" pageWidth="827" pageHeight="1169" math="0" shadow="0">
      <root>
        <mxCell id="0" />
        <mxCell id="1" parent="0" />
        <mxCell id="puz1yjuRk-45T99zkhSG-5" style="edgeStyle=orthogonalEdgeStyle;rounded=0;orthogonalLoop=1;jettySize=auto;html=1;exitX=0.5;exitY=0.5;exitDx=0;exitDy=0;exitPerimeter=0;entryX=0;entryY=0.5;entryDx=0;entryDy=0;" edge="1" parent="1" source="puz1yjuRk-45T99zkhSG-1" target="puz1yjuRk-45T99zkhSG-3">
          <mxGeometry relative="1" as="geometry" />
        </mxCell>
        <mxCell id="puz1yjuRk-45T99zkhSG-7" style="edgeStyle=orthogonalEdgeStyle;rounded=0;orthogonalLoop=1;jettySize=auto;html=1;exitX=0.5;exitY=0.5;exitDx=0;exitDy=0;exitPerimeter=0;entryX=1;entryY=0.5;entryDx=0;entryDy=0;" edge="1" parent="1" source="puz1yjuRk-45T99zkhSG-1" target="puz1yjuRk-45T99zkhSG-6">
          <mxGeometry relative="1" as="geometry">
            <mxPoint x="130" y="220" as="targetPoint" />
          </mxGeometry>
        </mxCell>
        <mxCell id="puz1yjuRk-45T99zkhSG-12" style="edgeStyle=orthogonalEdgeStyle;rounded=0;orthogonalLoop=1;jettySize=auto;html=1;exitX=1;exitY=1;exitDx=0;exitDy=0;exitPerimeter=0;entryX=0;entryY=0.5;entryDx=0;entryDy=0;" edge="1" parent="1" source="puz1yjuRk-45T99zkhSG-1" target="puz1yjuRk-45T99zkhSG-11">
          <mxGeometry relative="1" as="geometry" />
        </mxCell>
        <mxCell id="puz1yjuRk-45T99zkhSG-18" style="edgeStyle=orthogonalEdgeStyle;rounded=0;orthogonalLoop=1;jettySize=auto;html=1;exitX=0.5;exitY=0;exitDx=0;exitDy=0;exitPerimeter=0;entryX=0;entryY=0.5;entryDx=0;entryDy=0;" edge="1" parent="1" source="puz1yjuRk-45T99zkhSG-1" target="puz1yjuRk-45T99zkhSG-16">
          <mxGeometry relative="1" as="geometry" />
        </mxCell>
        <mxCell id="puz1yjuRk-45T99zkhSG-29" style="edgeStyle=orthogonalEdgeStyle;rounded=0;orthogonalLoop=1;jettySize=auto;html=1;exitX=1;exitY=1;exitDx=0;exitDy=0;exitPerimeter=0;entryX=0;entryY=0.5;entryDx=0;entryDy=0;" edge="1" parent="1" source="puz1yjuRk-45T99zkhSG-1" target="puz1yjuRk-45T99zkhSG-8">
          <mxGeometry relative="1" as="geometry" />
        </mxCell>
        <mxCell id="puz1yjuRk-45T99zkhSG-32" style="edgeStyle=orthogonalEdgeStyle;rounded=0;orthogonalLoop=1;jettySize=auto;html=1;exitX=0.5;exitY=0;exitDx=0;exitDy=0;exitPerimeter=0;entryX=0;entryY=0.5;entryDx=0;entryDy=0;" edge="1" parent="1" source="puz1yjuRk-45T99zkhSG-1" target="puz1yjuRk-45T99zkhSG-30">
          <mxGeometry relative="1" as="geometry" />
        </mxCell>
        <mxCell id="puz1yjuRk-45T99zkhSG-36" style="edgeStyle=orthogonalEdgeStyle;rounded=0;orthogonalLoop=1;jettySize=auto;html=1;exitX=0;exitY=1;exitDx=0;exitDy=0;exitPerimeter=0;entryX=1;entryY=0.5;entryDx=0;entryDy=0;" edge="1" parent="1" source="puz1yjuRk-45T99zkhSG-1" target="puz1yjuRk-45T99zkhSG-23">
          <mxGeometry relative="1" as="geometry" />
        </mxCell>
        <mxCell id="puz1yjuRk-45T99zkhSG-1" value="Ofertante" style="shape=umlActor;verticalLabelPosition=bottom;verticalAlign=top;html=1;outlineConnect=0;" vertex="1" parent="1">
          <mxGeometry x="220" y="180" width="30" height="60" as="geometry" />
        </mxCell>
        <mxCell id="puz1yjuRk-45T99zkhSG-4" style="edgeStyle=orthogonalEdgeStyle;rounded=0;orthogonalLoop=1;jettySize=auto;html=1;exitX=0.5;exitY=0.5;exitDx=0;exitDy=0;exitPerimeter=0;entryX=1;entryY=0.5;entryDx=0;entryDy=0;" edge="1" parent="1" source="puz1yjuRk-45T99zkhSG-2" target="puz1yjuRk-45T99zkhSG-3">
          <mxGeometry relative="1" as="geometry" />
        </mxCell>
        <mxCell id="puz1yjuRk-45T99zkhSG-13" style="edgeStyle=orthogonalEdgeStyle;rounded=0;orthogonalLoop=1;jettySize=auto;html=1;exitX=0;exitY=1;exitDx=0;exitDy=0;exitPerimeter=0;entryX=1;entryY=0.5;entryDx=0;entryDy=0;" edge="1" parent="1" source="puz1yjuRk-45T99zkhSG-2" target="puz1yjuRk-45T99zkhSG-11">
          <mxGeometry relative="1" as="geometry" />
        </mxCell>
        <mxCell id="puz1yjuRk-45T99zkhSG-15" style="edgeStyle=orthogonalEdgeStyle;rounded=0;orthogonalLoop=1;jettySize=auto;html=1;exitX=0.5;exitY=0.5;exitDx=0;exitDy=0;exitPerimeter=0;entryX=0;entryY=0.5;entryDx=0;entryDy=0;" edge="1" parent="1" source="puz1yjuRk-45T99zkhSG-2" target="puz1yjuRk-45T99zkhSG-14">
          <mxGeometry relative="1" as="geometry" />
        </mxCell>
        <mxCell id="puz1yjuRk-45T99zkhSG-17" style="edgeStyle=orthogonalEdgeStyle;rounded=0;orthogonalLoop=1;jettySize=auto;html=1;exitX=0.5;exitY=0;exitDx=0;exitDy=0;exitPerimeter=0;entryX=1;entryY=0.5;entryDx=0;entryDy=0;" edge="1" parent="1" source="puz1yjuRk-45T99zkhSG-2" target="puz1yjuRk-45T99zkhSG-16">
          <mxGeometry relative="1" as="geometry" />
        </mxCell>
        <mxCell id="puz1yjuRk-45T99zkhSG-20" style="edgeStyle=orthogonalEdgeStyle;rounded=0;orthogonalLoop=1;jettySize=auto;html=1;exitX=0.75;exitY=0.1;exitDx=0;exitDy=0;exitPerimeter=0;entryX=0;entryY=0.5;entryDx=0;entryDy=0;" edge="1" parent="1" source="puz1yjuRk-45T99zkhSG-2" target="puz1yjuRk-45T99zkhSG-19">
          <mxGeometry relative="1" as="geometry" />
        </mxCell>
        <mxCell id="puz1yjuRk-45T99zkhSG-28" style="edgeStyle=orthogonalEdgeStyle;rounded=0;orthogonalLoop=1;jettySize=auto;html=1;exitX=0;exitY=1;exitDx=0;exitDy=0;exitPerimeter=0;entryX=1;entryY=0.5;entryDx=0;entryDy=0;" edge="1" parent="1" source="puz1yjuRk-45T99zkhSG-2" target="puz1yjuRk-45T99zkhSG-8">
          <mxGeometry relative="1" as="geometry" />
        </mxCell>
        <mxCell id="puz1yjuRk-45T99zkhSG-33" style="edgeStyle=orthogonalEdgeStyle;rounded=0;orthogonalLoop=1;jettySize=auto;html=1;exitX=0.5;exitY=0;exitDx=0;exitDy=0;exitPerimeter=0;entryX=1;entryY=0.5;entryDx=0;entryDy=0;" edge="1" parent="1" source="puz1yjuRk-45T99zkhSG-2" target="puz1yjuRk-45T99zkhSG-30">
          <mxGeometry relative="1" as="geometry" />
        </mxCell>
        <mxCell id="puz1yjuRk-45T99zkhSG-34" style="edgeStyle=orthogonalEdgeStyle;rounded=0;orthogonalLoop=1;jettySize=auto;html=1;exitX=1;exitY=1;exitDx=0;exitDy=0;exitPerimeter=0;entryX=0;entryY=0.5;entryDx=0;entryDy=0;" edge="1" parent="1" source="puz1yjuRk-45T99zkhSG-2" target="puz1yjuRk-45T99zkhSG-21">
          <mxGeometry relative="1" as="geometry" />
        </mxCell>
        <mxCell id="puz1yjuRk-45T99zkhSG-2" value="Demandante" style="shape=umlActor;verticalLabelPosition=bottom;verticalAlign=top;html=1;outlineConnect=0;" vertex="1" parent="1">
          <mxGeometry x="570" y="180" width="30" height="60" as="geometry" />
        </mxCell>
        <mxCell id="puz1yjuRk-45T99zkhSG-3" value="Agendar o serviço" style="ellipse;whiteSpace=wrap;html=1;" vertex="1" parent="1">
          <mxGeometry x="354" y="170" width="120" height="80" as="geometry" />
        </mxCell>
        <mxCell id="puz1yjuRk-45T99zkhSG-6" value="Criar perfil de prestador de serviços médicos" style="ellipse;whiteSpace=wrap;html=1;" vertex="1" parent="1">
          <mxGeometry x="20" y="170" width="120" height="80" as="geometry" />
        </mxCell>
        <mxCell id="puz1yjuRk-45T99zkhSG-8" value="Negociar condições" style="ellipse;whiteSpace=wrap;html=1;" vertex="1" parent="1">
          <mxGeometry x="354" y="370" width="120" height="80" as="geometry" />
        </mxCell>
        <mxCell id="puz1yjuRk-45T99zkhSG-11" value="Gerenciar agenda" style="ellipse;whiteSpace=wrap;html=1;" vertex="1" parent="1">
          <mxGeometry x="354" y="270" width="120" height="80" as="geometry" />
        </mxCell>
        <mxCell id="puz1yjuRk-45T99zkhSG-14" value="Criar perfil de tomador de serviços" style="ellipse;whiteSpace=wrap;html=1;" vertex="1" parent="1">
          <mxGeometry x="690" y="170" width="120" height="80" as="geometry" />
        </mxCell>
        <mxCell id="puz1yjuRk-45T99zkhSG-16" value="Avaliar o serviço prestado" style="ellipse;whiteSpace=wrap;html=1;" vertex="1" parent="1">
          <mxGeometry x="354" y="70" width="120" height="80" as="geometry" />
        </mxCell>
        <mxCell id="puz1yjuRk-45T99zkhSG-19" value="Consultar histórico médico" style="ellipse;whiteSpace=wrap;html=1;" vertex="1" parent="1">
          <mxGeometry x="690" y="80" width="120" height="80" as="geometry" />
        </mxCell>
        <mxCell id="puz1yjuRk-45T99zkhSG-21" value="Consultar perfil de prestadores" style="ellipse;whiteSpace=wrap;html=1;" vertex="1" parent="1">
          <mxGeometry x="690" y="260" width="120" height="80" as="geometry" />
        </mxCell>
        <mxCell id="puz1yjuRk-45T99zkhSG-23" value="Consultar perfil de tomador de serviços" style="ellipse;whiteSpace=wrap;html=1;" vertex="1" parent="1">
          <mxGeometry x="20" y="260" width="120" height="80" as="geometry" />
        </mxCell>
        <mxCell id="puz1yjuRk-45T99zkhSG-30" value="Editar perfil" style="ellipse;whiteSpace=wrap;html=1;" vertex="1" parent="1">
          <mxGeometry x="354" y="-30" width="120" height="80" as="geometry" />
        </mxCell>
      </root>
    </mxGraphModel>
  </diagram>
</mxfile>
